#!OML:ASF H:\Not Pregnant\Project 1\Capture day 1\Session 1\non-pregnant.ASF
:FULLY-SPECIFIED
:DEGREES
306
root -5.73417 16.3407 34.8573 169.539 -81.1483 -156.255
lowerback -12.3633 2.28676 1.8853
upperback -6.60992 2.49799 -0.225531
thorax 0.101548 1.05842 -0.988426
lowerneck 16.8285 -6.71772 -30.8979
upperneck -8.07956 -15.3354 43.0905
head 1.54467 -10.3242 23.6222
rclavicle -5.45167e-014 -7.55382e-015
rhumerus -37.1865 6.22185 -93.4514
rradius 26.835
rwrist 22.4102
rhand -9.08037 2.89958
rfingers 7.12502
rthumb 16.8691 -26.3877
lclavicle -5.45167e-014 -7.55382e-015
lhumerus -43.5057 -11.6064 95.0856
lradius 31.3431
lwrist 36.8834
lhand -10.699 -14.838
lfingers 7.12502
lthumb 15.3105 14.5752
rfemur -9.04947 -6.90047 22.1458
rtibia 4.81388
rfoot -11.7096 13.6204
rtoes -12.7896
lfemur -14.9296 4.41753 -15.9628
ltibia 13.3097
lfoot -13.5144 -7.81995
ltoes -20.101
307
root -5.7343 16.3407 34.8587 169.488 -81.1369 -156.204
lowerback -12.3884 2.28159 1.90372
upperback -6.60184 2.48864 -0.228729
thorax 0.124057 1.05351 -1.00225
lowerneck 16.8074 -6.71622 -30.8956
upperneck -8.05282 -15.3322 43.0807
head 1.55249 -10.3197 23.6112
rclavicle 8.54774e-015 1.07344e-014
rhumerus -37.1966 6.11579 -93.3446
rradius 26.7998
rwrist 22.5346
rhand -9.01702 3.0042
rfingers 7.12502
rthumb 16.9301 -26.2779
lclavicle 8.54774e-015 1.07344e-014
lhumerus -43.4397 -11.4781 95.0245
lradius 31.3067
lwrist 36.8799
lhand -10.541 -14.7788
lfingers 7.12502
lthumb 15.4626 14.6228
rfemur -9.00477 -6.89118 22.1527
rtibia 4.72544
rfoot -11.6679 13.6245
rtoes -12.8156
lfemur -14.9404 4.40592 -15.9531
ltibia 13.335
lfoot -13.518 -7.80699
ltoes -20.0433
308
root -5.73447 16.3406 34.8601 169.444 -81.1245 -156.16
lowerback -12.4185 2.27453 1.91248
upperback -6.59296 2.47755 -0.226554
thorax 0.149465 1.04805 -1.00514
lowerneck 16.7895 -6.71289 -30.9043
upperneck -8.02076 -15.3319 43.0729
head 1.56389 -10.3169 23.6054
rclavicle -1.5704e-014 -7.95139e-016
rhumerus -37.1916 5.94783 -93.1904
rradius 26.7334
rwrist 22.7448
rhand -8.91372 3.18363
rfingers 7.12502
rthumb 17.0295 -26.0899
lclavicle -1.5704e-014 -7.95139e-016
lhumerus -43.3925 -11.3884 94.9892
lradius 31.294
lwrist 36.8875
lhand -10.425 -14.7132
lfingers 7.12502
lthumb 15.5744 14.6797
rfemur -8.96547 -6.88065 22.1588
rtibia 4.64779
rfoot -11.6301 13.6303
rtoes -12.8364
lfemur -14.9501 4.40356 -15.9455
ltibia 13.3582
lfoot -13.5233 -7.79985
ltoes -19.9987
309
root -5.73466 16.3405 34.8614 169.431 -81.1126 -156.149
lowerback -12.4491 2.28828 1.92781
upperback -6.58471 2.49387 -0.252115
thorax 0.176771 1.0558 -1.03701
lowerneck 16.8052 -6.72505 -30.8671
upperneck -8.01148 -15.3508 43.0756
head 1.56773 -10.3296 23.5927
rclavicle 2.57923e-014 -6.36111e-015
rhumerus -37.178 5.67042 -93.0125
rradius 26.6469
rwrist 23.0192
rhand -8.75961 3.44884
rfingers 7.12502
rthumb 17.1778 -25.8119
lclavicle 2.57923e-014 -6.36111e-015
lhumerus -43.3532 -11.3971 94.9685
lradius 31.2683
lwrist 36.8211
lhand -10.3689 -14.6807
lfingers 7.12502
lthumb 15.6284 14.708
rfemur -8.93454 -6.87014 22.1582
rtibia 4.58798
rfoot -11.5962 13.6394
rtoes -12.8346
lfemur -14.9556 4.40851 -15.9442
ltibia 13.3766
lfoot -13.53 -7.79806
ltoes -19.9716
310
root -5.73479 16.3404 34.8628 169.417 -81.0984 -156.137
lowerback -12.4824 2.29794 1.9417
upperback -6.57589 2.50466 -0.270104
thorax 0.205574 1.06093 -1.06082
lowerneck 16.8144 -6.73387 -30.8477
upperneck -7.9928 -15.3689 43.0755
head 1.57657 -10.3405 23.5828
rclavicle -8.05078e-015 -1.86858e-014
rhumerus -37.1683 5.44064 -92.8405
rradius 26.5589
rwrist 23.2799
rhand -8.57756 3.74459
rfingers 7.12502
rthumb 17.353 -25.5008
lclavicle -8.05078e-015 -1.86858e-014
lhumerus -43.3333 -11.442 94.9844
lradius 31.2527
lwrist 36.704
lhand -10.3914 -14.6774
lfingers 7.12502
lthumb 15.6067 14.713
rfemur -8.91819 -6.8573 22.1582
rtibia 4.55468
rfoot -11.575 13.648
rtoes -12.8262
lfemur -14.9576 4.42228 -15.9429
ltibia 13.3869
lfoot -13.5352 -7.8013
ltoes -19.9544
311
root -5.73498 16.3403 34.864 169.425 -81.0826 -156.146
lowerback -12.5213 2.29266 1.94733
upperback -6.56316 2.49616 -0.27038
thorax 0.239762 1.05697 -1.06382
lowerneck 16.7977 -6.73495 -30.8664
upperneck -7.95333 -15.3805 43.0669
head 1.59619 -10.3438 23.5763
rclavicle -1.2424e-015 -3.18055e-015
rhumerus -37.168 5.34872 -92.7102
rradius 26.4842
rwrist 23.4549
rhand -8.40703 4.00053
rfingers 7.12502
rthumb 17.5172 -25.2303
lclavicle -1.2424e-015 -3.18055e-015
lhumerus -43.3187 -11.4713 95.0291
lradius 31.222
lwrist 36.4317
lhand -10.5331 -14.7243
lfingers 7.12502
lthumb 15.4702 14.6767
rfemur -8.91709 -6.8424 22.1551
rtibia 4.55161
rfoot -11.5656 13.6556
rtoes -12.8003
lfemur -14.9547 4.45491 -15.9466
ltibia 13.387
lfoot -13.5401 -7.82033
ltoes -19.9471
312
root -5.73519 16.3404 34.8652 169.448 -81.0656 -156.17
lowerback -12.5642 2.2869 1.95148
upperback -6.54839 2.48712 -0.269691
thorax 0.278086 1.05285 -1.0649
lowerneck 16.7757 -6.73566 -30.8922
upperneck -7.90936 -15.3926 43.0576
head 1.61909 -10.3467 23.5707
rclavicle 8.94531e-016 8.34896e-015
rhumerus -37.1815 5.35777 -92.636
rradius 26.4303
rwrist 23.5255
rhand -8.28587 4.1632
rfingers 7.12502
rthumb 17.6338 -25.0572
lclavicle 8.94531e-016 8.34896e-015
lhumerus -43.3009 -11.5083 95.0801
lradius 31.1792
lwrist 36.0908
lhand -10.718 -14.7999
lfingers 7.12502
lthumb 15.2921 14.6148
rfemur -8.93753 -6.82592 22.1498
rtibia 4.58782
rfoot -11.5744 13.6605
rtoes -12.7721
lfemur -14.9445 4.49019 -15.9521
ltibia 13.3721
lfoot -13.538 -7.84331
ltoes -19.9326
